<mxfile host="Electron" modified="2024-01-12T07:24:12.464Z" agent="Mozilla/5.0 (Windows NT 10.0; Win64; x64) AppleWebKit/537.36 (KHTML, like Gecko) draw.io/22.1.16 Chrome/120.0.6099.109 Electron/28.1.0 Safari/537.36" etag="jCxCVuxWgSJauMerWJlw" version="22.1.16" type="device">
  <diagram name="Page-1" id="q1Sg-nbbM8XcEY6coXEs">
    <mxGraphModel dx="864" dy="515" grid="1" gridSize="10" guides="1" tooltips="1" connect="1" arrows="1" fold="1" page="1" pageScale="1" pageWidth="850" pageHeight="1100" math="0" shadow="0">
      <root>
        <mxCell id="0" />
        <mxCell id="1" parent="0" />
        <mxCell id="8PoACewHBBhSEH3m1TUI-14" value="" style="verticalLabelPosition=bottom;html=1;verticalAlign=top;align=center;strokeColor=none;fillColor=#09555B;shape=mxgraph.azure.user;labelBackgroundColor=none;fontColor=#EEEEEE;rounded=1;" parent="1" vertex="1">
          <mxGeometry x="730" y="200" width="110" height="120" as="geometry" />
        </mxCell>
        <mxCell id="8PoACewHBBhSEH3m1TUI-15" value="" style="verticalLabelPosition=bottom;html=1;verticalAlign=top;align=center;strokeColor=none;fillColor=#09555B;shape=mxgraph.azure.user;labelBackgroundColor=none;fontColor=#EEEEEE;rounded=1;" parent="1" vertex="1">
          <mxGeometry x="450" y="200" width="110" height="120" as="geometry" />
        </mxCell>
        <mxCell id="8PoACewHBBhSEH3m1TUI-16" value="" style="verticalLabelPosition=bottom;html=1;verticalAlign=top;align=center;strokeColor=none;fillColor=#09555B;shape=mxgraph.azure.user;labelBackgroundColor=none;fontColor=#EEEEEE;rounded=1;" parent="1" vertex="1">
          <mxGeometry x="280" y="200" width="110" height="120" as="geometry" />
        </mxCell>
        <mxCell id="8PoACewHBBhSEH3m1TUI-17" value="" style="verticalLabelPosition=bottom;html=1;verticalAlign=top;align=center;strokeColor=none;fillColor=#09555B;shape=mxgraph.azure.user;labelBackgroundColor=none;fontColor=#EEEEEE;rounded=1;" parent="1" vertex="1">
          <mxGeometry x="20" y="200" width="110" height="120" as="geometry" />
        </mxCell>
        <mxCell id="8PoACewHBBhSEH3m1TUI-18" value="" style="verticalLabelPosition=bottom;html=1;verticalAlign=top;align=center;strokeColor=none;fillColor=#09555B;shape=mxgraph.azure.user;labelBackgroundColor=none;fontColor=#EEEEEE;rounded=1;" parent="1" vertex="1">
          <mxGeometry x="580" y="200" width="110" height="120" as="geometry" />
        </mxCell>
        <mxCell id="8PoACewHBBhSEH3m1TUI-19" value="" style="verticalLabelPosition=bottom;html=1;verticalAlign=top;align=center;strokeColor=none;fillColor=#09555B;shape=mxgraph.azure.user;labelBackgroundColor=none;fontColor=#EEEEEE;rounded=1;" parent="1" vertex="1">
          <mxGeometry x="140" y="200" width="110" height="120" as="geometry" />
        </mxCell>
        <mxCell id="8PoACewHBBhSEH3m1TUI-22" value="" style="rounded=1;whiteSpace=wrap;html=1;fillColor=none;strokeColor=#314354;fontColor=#ffffff;labelBackgroundColor=none;" parent="1" vertex="1">
          <mxGeometry x="10" y="160" width="390" height="200" as="geometry" />
        </mxCell>
        <mxCell id="8PoACewHBBhSEH3m1TUI-23" value="" style="rounded=1;whiteSpace=wrap;html=1;fillColor=none;strokeColor=#314354;fontColor=#ffffff;labelBackgroundColor=none;" parent="1" vertex="1">
          <mxGeometry x="270" y="120" width="290" height="280" as="geometry" />
        </mxCell>
        <mxCell id="8PoACewHBBhSEH3m1TUI-24" value="" style="rounded=1;whiteSpace=wrap;html=1;fillColor=none;fontColor=#ffffff;strokeColor=#314354;labelBackgroundColor=none;" parent="1" vertex="1">
          <mxGeometry x="450" y="160" width="260" height="200" as="geometry" />
        </mxCell>
        <mxCell id="8PoACewHBBhSEH3m1TUI-30" value="Text" style="text;html=1;align=center;verticalAlign=middle;resizable=0;points=[];autosize=1;strokeColor=none;fillColor=none;fontColor=#EEEEEE;" parent="1" vertex="1">
          <mxGeometry x="195" y="98" width="50" height="30" as="geometry" />
        </mxCell>
        <mxCell id="8PoACewHBBhSEH3m1TUI-32" value="AS" style="text;html=1;align=center;verticalAlign=middle;resizable=0;points=[];autosize=1;strokeColor=none;fillColor=none;fontColor=#EEEEEE;" parent="1" vertex="1">
          <mxGeometry x="100" y="48" width="40" height="30" as="geometry" />
        </mxCell>
        <mxCell id="8PoACewHBBhSEH3m1TUI-33" value="GROUP: DEVELOPERS" style="text;html=1;align=center;verticalAlign=middle;resizable=0;points=[];autosize=1;strokeColor=none;fillColor=none;fontColor=#000000;fontStyle=1;fontFamily=Times New Roman;fontSize=23;" parent="1" vertex="1">
          <mxGeometry y="110" width="280" height="40" as="geometry" />
        </mxCell>
        <mxCell id="8PoACewHBBhSEH3m1TUI-36" value="&lt;font color=&quot;#1c1c1c&quot; style=&quot;font-size: 23px;&quot;&gt;GROUP: AUDIT TEAM&lt;/font&gt;" style="text;html=1;align=center;verticalAlign=middle;resizable=0;points=[];autosize=1;strokeColor=none;fillColor=none;fontColor=#EEEEEE;fontStyle=1;fontFamily=Times New Roman;fontSize=23;" parent="1" vertex="1">
          <mxGeometry x="260" y="70" width="270" height="40" as="geometry" />
        </mxCell>
        <mxCell id="8PoACewHBBhSEH3m1TUI-38" value="&lt;b style=&quot;font-size: 21px;&quot;&gt;GROUP: OPERATIONS&lt;/b&gt;" style="text;html=1;align=center;verticalAlign=middle;resizable=0;points=[];autosize=1;strokeColor=none;fillColor=none;fontColor=#292929;fontFamily=Times New Roman;fontSize=21;" parent="1" vertex="1">
          <mxGeometry x="560" y="110" width="250" height="40" as="geometry" />
        </mxCell>
        <mxCell id="8PoACewHBBhSEH3m1TUI-41" value="&lt;h1 style=&quot;font-size: 22px;&quot;&gt;&lt;font color=&quot;#030303&quot; style=&quot;font-size: 22px;&quot;&gt;&lt;b style=&quot;font-size: 22px;&quot;&gt;Alice&lt;/b&gt;&lt;/font&gt;&lt;/h1&gt;" style="text;html=1;align=center;verticalAlign=middle;resizable=0;points=[];autosize=1;strokeColor=none;fillColor=none;fontColor=#EEEEEE;fontFamily=Times New Roman;fontSize=22;" parent="1" vertex="1">
          <mxGeometry x="40" y="305" width="70" height="70" as="geometry" />
        </mxCell>
        <mxCell id="8PoACewHBBhSEH3m1TUI-43" value="&lt;font color=&quot;#000000&quot; style=&quot;font-size: 21px;&quot;&gt;Bob&lt;/font&gt;" style="text;html=1;align=center;verticalAlign=middle;resizable=0;points=[];autosize=1;strokeColor=none;fillColor=none;fontColor=#EEEEEE;fontStyle=1;fontFamily=Times New Roman;fontSize=21;" parent="1" vertex="1">
          <mxGeometry x="175" y="320" width="60" height="40" as="geometry" />
        </mxCell>
        <mxCell id="8PoACewHBBhSEH3m1TUI-45" value="Charles" style="text;whiteSpace=wrap;html=1;fontColor=#000000;fontStyle=1;fontFamily=Times New Roman;fontSize=21;" parent="1" vertex="1">
          <mxGeometry x="300" y="320" width="70" height="40" as="geometry" />
        </mxCell>
        <mxCell id="8PoACewHBBhSEH3m1TUI-46" value="David" style="text;html=1;align=center;verticalAlign=middle;resizable=0;points=[];autosize=1;strokeColor=none;fillColor=none;fontColor=#000000;fontStyle=1;fontFamily=Times New Roman;fontSize=21;" parent="1" vertex="1">
          <mxGeometry x="470" y="320" width="80" height="40" as="geometry" />
        </mxCell>
        <mxCell id="8PoACewHBBhSEH3m1TUI-47" value="&lt;font color=&quot;#000000&quot; style=&quot;font-size: 21px;&quot;&gt;Edward&lt;/font&gt;" style="text;html=1;align=center;verticalAlign=middle;resizable=0;points=[];autosize=1;strokeColor=none;fillColor=none;fontColor=#EEEEEE;fontStyle=1;fontFamily=Times New Roman;fontSize=21;" parent="1" vertex="1">
          <mxGeometry x="585" y="320" width="100" height="40" as="geometry" />
        </mxCell>
        <mxCell id="8PoACewHBBhSEH3m1TUI-48" value="&lt;b&gt;&lt;font style=&quot;font-size: 21px;&quot; color=&quot;#000000&quot; face=&quot;Times New Roman&quot;&gt;Fred&lt;/font&gt;&lt;/b&gt;" style="text;html=1;align=center;verticalAlign=middle;resizable=0;points=[];autosize=1;strokeColor=none;fillColor=none;fontColor=#EEEEEE;" parent="1" vertex="1">
          <mxGeometry x="750" y="320" width="70" height="40" as="geometry" />
        </mxCell>
      </root>
    </mxGraphModel>
  </diagram>
</mxfile>
